<svg xmlns="http://www.w3.org/2000/svg" width="45" height="36" fill="none"><path fill="#00A93D" d="M42.75 18h-2.253a2.256 2.256 0 0 0-2.247-2.25h-.114C37.582 11.946 34.334 9 30.375 9s-7.207 2.943-7.762 6.687H6.75c-1.235 0-2.24 1.069-2.247 2.313H2.25c-.622 0-1.125.506-1.125 1.125s.503 1.125 1.125 1.125h2.4c.704 5.774 4.015 10.702 8.852 13.5a2.25 2.25 0 0 0 2.25 2.25H29.19a2.25 2.25 0 0 0 2.25-2.25 18.195 18.195 0 0 0 8.852-13.5h2.459a1.125 1.125 0 0 0 0-2.25Zm-12.375-6.75c2.717 0 4.989 1.936 5.511 4.437H24.861c.522-2.503 2.8-4.437 5.514-4.437Zm7.812 6.764c0 5.66-3.022 10.948-7.89 13.795l-1.112.652v1.289H15.75v-1.29l-1.11-.65C9.773 28.96 6.75 23.673 6.75 18h16.812c0-.063 0 0 .063 0H37.063c-.001-.063-.001 0 .062 0h1.125v.014h-.063ZM16.369 7.755A2.936 2.936 0 0 1 18 10.392v1.983c0 .619.506 1.125 1.125 1.125s1.125-.506 1.125-1.125v-1.983a5.17 5.17 0 0 0-2.872-4.647A2.936 2.936 0 0 1 15.75 3.11V1.125C15.75.503 15.244 0 14.625 0S13.5.503 13.5 1.125v1.984c0 1.98 1.104 3.76 2.869 4.646Zm-6.75 0a2.936 2.936 0 0 1 1.631 2.637v1.983c0 .619.506 1.125 1.125 1.125s1.125-.506 1.125-1.125v-1.983a5.17 5.17 0 0 0-2.872-4.647A2.936 2.936 0 0 1 9 3.11V1.125C9 .503 8.494 0 7.875 0S6.75.503 6.75 1.125v1.984c0 1.98 1.104 3.76 2.869 4.646Z"/></svg>